<svg width="513" height="513" viewBox="0 0 513 513" fill="none" xmlns="http://www.w3.org/2000/svg">
<path d="M294.196 458.448L281.543 479.831C270.268 498.88 242.091 498.88 230.792 479.831L218.14 458.448C208.335 441.873 203.433 433.562 195.542 428.987C187.652 424.388 177.73 424.225 157.887 423.874C128.567 423.384 110.195 421.587 94.7872 415.19C80.6257 409.324 67.7582 400.727 56.9194 389.888C46.0806 379.049 37.4829 366.182 31.617 352.02C22.7228 330.59 16.5532 303.393 16.5532 249.001V225.656C16.5532 149.25 22.7228 111.035 39.9277 82.9747C49.5466 67.2685 62.7457 54.0614 78.4461 44.433C106.53 27.2281 144.768 17.9739 221.151 17.9739H291.185C367.591 17.9739 405.806 27.2281 433.889 44.433C449.587 54.0548 462.786 67.2537 472.408 82.9514C489.613 111.035 496.553 149.273 496.553 225.656V249.001C496.553 303.393 489.613 330.59 480.742 352.02C474.873 366.184 466.272 379.052 455.429 389.891C444.586 400.73 431.714 409.327 417.548 415.19C402.141 421.587 383.769 423.361 354.448 423.874C334.605 424.225 324.684 424.388 316.793 428.987C308.903 433.562 304.001 441.85 294.196 458.448Z" fill="url(#paint0_linear_509_2)"/>
<defs>
<linearGradient id="paint0_linear_509_2" x1="83.0206" y1="47.1025" x2="333.274" y2="435.555" gradientUnits="userSpaceOnUse">
<stop stop-color="#00BEFF"/>
<stop offset="1" stop-color="#0079B4"/>
</linearGradient>
</defs>
</svg>
